<?xml version="1.0" encoding="UTF-8" standalone="no"?>
<!DOCTYPE svg PUBLIC "-//W3C//DTD SVG 1.1//EN"
 "http://www.w3.org/Graphics/SVG/1.1/DTD/svg11.dtd">
<!-- Generated by graphviz version 15.0.0 (20260523.1842)
 -->
<!-- Pages: 1 -->
<svg width="721pt" height="908pt"
 viewBox="0.00 0.00 721.00 908.00" xmlns="http://www.w3.org/2000/svg" xmlns:xlink="http://www.w3.org/1999/xlink">
<g id="graph0" class="graph" transform="scale(1 1) rotate(0) translate(4 904)">
<polygon fill="white" stroke="none" points="-4,4 -4,-904 717.38,-904 717.38,4 -4,4"/>
<!-- &#45;7061918537483567962 -->
<g id="node1" class="node">
<title>&#45;7061918537483567962</title>
<polygon fill="none" stroke="black" points="400.5,-900 229.25,-900 229.25,-864 400.5,-864 400.5,-900"/>
<text xml:space="preserve" text-anchor="middle" x="314.88" y="-874.62" font-family="Helvetica,sans-Serif" font-size="20.00">ResetIndex(Sum)</text>
</g>
<!-- 1594314436056546146 -->
<g id="node2" class="node">
<title>1594314436056546146</title>
<polygon fill="none" stroke="black" points="394.88,-828 234.88,-828 234.88,-792 394.88,-792 394.88,-828"/>
<text xml:space="preserve" text-anchor="middle" x="314.88" y="-802.62" font-family="Helvetica,sans-Serif" font-size="20.00">Sum(Projection)</text>
</g>
<!-- 1594314436056546146&#45;&gt;&#45;7061918537483567962 -->
<g id="edge1" class="edge">
<title>1594314436056546146&#45;&gt;&#45;7061918537483567962</title>
<path fill="none" stroke="black" d="M314.88,-828.3C314.88,-835.59 314.88,-844.27 314.88,-852.46"/>
<polygon fill="black" stroke="black" points="311.38,-852.38 314.88,-862.38 318.38,-852.38 311.38,-852.38"/>
</g>
<!-- 3558554356436357505 -->
<g id="node3" class="node">
<title>3558554356436357505</title>
<polygon fill="none" stroke="black" points="556.88,-756 72.88,-756 72.88,-720 556.88,-720 556.88,-756"/>
<text xml:space="preserve" text-anchor="middle" x="314.88" y="-730.62" font-family="Helvetica,sans-Serif" font-size="20.00">Projection(Assign, [&#39;playcount&#39;, &#39;user_idx&#39;, &#39;track_idx&#39;])</text>
</g>
<!-- 3558554356436357505&#45;&gt;1594314436056546146 -->
<g id="edge2" class="edge">
<title>3558554356436357505&#45;&gt;1594314436056546146</title>
<path fill="none" stroke="black" d="M314.88,-756.3C314.88,-763.59 314.88,-772.27 314.88,-780.46"/>
<polygon fill="black" stroke="black" points="311.38,-780.38 314.88,-790.38 318.38,-780.38 311.38,-780.38"/>
</g>
<!-- 2706069047967327518 -->
<g id="node4" class="node">
<title>2706069047967327518</title>
<polygon fill="none" stroke="black" points="497.25,-684 132.5,-684 132.5,-648 497.25,-648 497.25,-684"/>
<text xml:space="preserve" text-anchor="middle" x="314.88" y="-658.62" font-family="Helvetica,sans-Serif" font-size="20.00">Assign(Assign, track_idx, PropertyMap)</text>
</g>
<!-- 2706069047967327518&#45;&gt;3558554356436357505 -->
<g id="edge3" class="edge">
<title>2706069047967327518&#45;&gt;3558554356436357505</title>
<path fill="none" stroke="black" d="M314.88,-684.3C314.88,-691.59 314.88,-700.27 314.88,-708.46"/>
<polygon fill="black" stroke="black" points="311.38,-708.38 314.88,-718.38 318.38,-708.38 311.38,-708.38"/>
</g>
<!-- 4748628248360591747 -->
<g id="node5" class="node">
<title>4748628248360591747</title>
<polygon fill="none" stroke="black" points="264.62,-612 31.12,-612 31.12,-576 264.62,-576 264.62,-612"/>
<text xml:space="preserve" text-anchor="middle" x="147.88" y="-586.62" font-family="Helvetica,sans-Serif" font-size="20.00">PropertyMap(Projection)</text>
</g>
<!-- 4748628248360591747&#45;&gt;2706069047967327518 -->
<g id="edge5" class="edge">
<title>4748628248360591747&#45;&gt;2706069047967327518</title>
<path fill="none" stroke="black" d="M189.59,-612.48C211.79,-621.79 239.3,-633.32 262.88,-643.21"/>
<polygon fill="black" stroke="black" points="261.44,-646.4 272.01,-647.03 264.14,-639.94 261.44,-646.4"/>
</g>
<!-- &#45;6508248156925276961 -->
<g id="node6" class="node">
<title>&#45;6508248156925276961</title>
<polygon fill="none" stroke="black" points="295.75,-468 0,-468 0,-432 295.75,-432 295.75,-468"/>
<text xml:space="preserve" text-anchor="middle" x="147.88" y="-442.62" font-family="Helvetica,sans-Serif" font-size="20.00">Projection(Categorize, track_id)</text>
</g>
<!-- &#45;6508248156925276961&#45;&gt;4748628248360591747 -->
<g id="edge6" class="edge">
<title>&#45;6508248156925276961&#45;&gt;4748628248360591747</title>
<path fill="none" stroke="black" d="M147.88,-468.41C147.88,-492.39 147.88,-535.86 147.88,-564.58"/>
<polygon fill="black" stroke="black" points="144.38,-564.38 147.88,-574.38 151.38,-564.38 144.38,-564.38"/>
</g>
<!-- &#45;6758549206980953373 -->
<g id="node7" class="node">
<title>&#45;6758549206980953373</title>
<polygon fill="none" stroke="black" points="417,-396 230.75,-396 230.75,-360 417,-360 417,-396"/>
<text xml:space="preserve" text-anchor="middle" x="323.88" y="-370.62" font-family="Helvetica,sans-Serif" font-size="20.00">Categorize(Assign)</text>
</g>
<!-- &#45;6758549206980953373&#45;&gt;&#45;6508248156925276961 -->
<g id="edge7" class="edge">
<title>&#45;6758549206980953373&#45;&gt;&#45;6508248156925276961</title>
<path fill="none" stroke="black" d="M279.92,-396.48C256.31,-405.87 227,-417.53 202,-427.47"/>
<polygon fill="black" stroke="black" points="200.98,-424.11 192.98,-431.06 203.57,-430.62 200.98,-424.11"/>
</g>
<!-- &#45;4902502814682613831 -->
<g id="node13" class="node">
<title>&#45;4902502814682613831</title>
<polygon fill="none" stroke="black" points="680.75,-612 283,-612 283,-576 680.75,-576 680.75,-612"/>
<text xml:space="preserve" text-anchor="middle" x="481.88" y="-586.62" font-family="Helvetica,sans-Serif" font-size="20.00">Assign(Categorize, user_idx, PropertyMap)</text>
</g>
<!-- &#45;6758549206980953373&#45;&gt;&#45;4902502814682613831 -->
<g id="edge14" class="edge">
<title>&#45;6758549206980953373&#45;&gt;&#45;4902502814682613831</title>
<path fill="none" stroke="black" d="M323.32,-396.34C323.22,-428.58 327.57,-498.29 363.88,-540 375.37,-553.2 390.79,-563.28 406.7,-570.91"/>
<polygon fill="black" stroke="black" points="405.24,-574.09 415.8,-574.96 408.09,-567.69 405.24,-574.09"/>
</g>
<!-- &#45;6757005226296275695 -->
<g id="node15" class="node">
<title>&#45;6757005226296275695</title>
<polygon fill="none" stroke="black" points="643.88,-468 351.88,-468 351.88,-432 643.88,-432 643.88,-468"/>
<text xml:space="preserve" text-anchor="middle" x="497.88" y="-442.62" font-family="Helvetica,sans-Serif" font-size="20.00">Projection(Categorize, user_id)</text>
</g>
<!-- &#45;6758549206980953373&#45;&gt;&#45;6757005226296275695 -->
<g id="edge17" class="edge">
<title>&#45;6758549206980953373&#45;&gt;&#45;6757005226296275695</title>
<path fill="none" stroke="black" d="M367.33,-396.48C390.57,-405.83 419.39,-417.43 444.03,-427.34"/>
<polygon fill="black" stroke="black" points="442.68,-430.57 453.26,-431.05 445.29,-424.07 442.68,-430.57"/>
</g>
<!-- 8908334375823376667 -->
<g id="node8" class="node">
<title>8908334375823376667</title>
<polygon fill="none" stroke="black" points="558,-324 89.75,-324 89.75,-288 558,-288 558,-324"/>
<text xml:space="preserve" text-anchor="middle" x="323.88" y="-298.62" font-family="Helvetica,sans-Serif" font-size="20.00">Assign(ArrowStringConversion, playcount, AsType)</text>
</g>
<!-- 8908334375823376667&#45;&gt;&#45;6758549206980953373 -->
<g id="edge8" class="edge">
<title>8908334375823376667&#45;&gt;&#45;6758549206980953373</title>
<path fill="none" stroke="black" d="M323.88,-324.3C323.88,-331.59 323.88,-340.27 323.88,-348.46"/>
<polygon fill="black" stroke="black" points="320.38,-348.38 323.88,-358.38 327.38,-348.38 320.38,-348.38"/>
</g>
<!-- &#45;8471348301241275068 -->
<g id="node9" class="node">
<title>&#45;8471348301241275068</title>
<polygon fill="none" stroke="black" points="536.62,-252 351.12,-252 351.12,-216 536.62,-216 536.62,-252"/>
<text xml:space="preserve" text-anchor="middle" x="443.88" y="-226.62" font-family="Helvetica,sans-Serif" font-size="20.00">AsType(Projection)</text>
</g>
<!-- &#45;8471348301241275068&#45;&gt;8908334375823376667 -->
<g id="edge10" class="edge">
<title>&#45;8471348301241275068&#45;&gt;8908334375823376667</title>
<path fill="none" stroke="black" d="M413.9,-252.48C398.61,-261.4 379.81,-272.37 363.36,-281.97"/>
<polygon fill="black" stroke="black" points="361.65,-278.91 354.77,-286.98 365.17,-284.96 361.65,-278.91"/>
</g>
<!-- 7905695919859400611 -->
<g id="node10" class="node">
<title>7905695919859400611</title>
<polygon fill="none" stroke="black" points="713.38,-180 292.38,-180 292.38,-144 713.38,-144 713.38,-180"/>
<text xml:space="preserve" text-anchor="middle" x="502.88" y="-154.62" font-family="Helvetica,sans-Serif" font-size="20.00">Projection(ArrowStringConversion, playcount)</text>
</g>
<!-- 7905695919859400611&#45;&gt;&#45;8471348301241275068 -->
<g id="edge11" class="edge">
<title>7905695919859400611&#45;&gt;&#45;8471348301241275068</title>
<path fill="none" stroke="black" d="M488.29,-180.3C481.43,-188.44 473.11,-198.31 465.54,-207.3"/>
<polygon fill="black" stroke="black" points="463.04,-204.84 459.27,-214.74 468.39,-209.35 463.04,-204.84"/>
</g>
<!-- &#45;4871029146874168567 -->
<g id="node11" class="node">
<title>&#45;4871029146874168567</title>
<polygon fill="none" stroke="black" points="593.75,-108 172,-108 172,-72 593.75,-72 593.75,-108"/>
<text xml:space="preserve" text-anchor="middle" x="382.88" y="-82.62" font-family="Helvetica,sans-Serif" font-size="20.00">ArrowStringConversion(FromMapProjectable)</text>
</g>
<!-- &#45;4871029146874168567&#45;&gt;8908334375823376667 -->
<g id="edge9" class="edge">
<title>&#45;4871029146874168567&#45;&gt;8908334375823376667</title>
<path fill="none" stroke="black" d="M325.65,-108.42C308.92,-116.46 292.55,-127.92 282.88,-144 257.27,-186.55 284.66,-244.7 305.33,-278.21"/>
<polygon fill="black" stroke="black" points="302.31,-279.98 310.65,-286.5 308.2,-276.2 302.31,-279.98"/>
</g>
<!-- &#45;4871029146874168567&#45;&gt;7905695919859400611 -->
<g id="edge12" class="edge">
<title>&#45;4871029146874168567&#45;&gt;7905695919859400611</title>
<path fill="none" stroke="black" d="M412.85,-108.48C428.14,-117.4 446.94,-128.37 463.39,-137.97"/>
<polygon fill="black" stroke="black" points="461.58,-140.96 471.98,-142.98 465.1,-134.91 461.58,-140.96"/>
</g>
<!-- 623425295254352538 -->
<g id="node12" class="node">
<title>623425295254352538</title>
<polygon fill="none" stroke="black" points="483.88,-36 281.88,-36 281.88,0 483.88,0 483.88,-36"/>
<text xml:space="preserve" text-anchor="middle" x="382.88" y="-10.62" font-family="Helvetica,sans-Serif" font-size="20.00">FromMapProjectable</text>
</g>
<!-- 623425295254352538&#45;&gt;&#45;4871029146874168567 -->
<g id="edge13" class="edge">
<title>623425295254352538&#45;&gt;&#45;4871029146874168567</title>
<path fill="none" stroke="black" d="M382.88,-36.3C382.88,-43.59 382.88,-52.27 382.88,-60.46"/>
<polygon fill="black" stroke="black" points="379.38,-60.38 382.88,-70.38 386.38,-60.38 379.38,-60.38"/>
</g>
<!-- &#45;4902502814682613831&#45;&gt;2706069047967327518 -->
<g id="edge4" class="edge">
<title>&#45;4902502814682613831&#45;&gt;2706069047967327518</title>
<path fill="none" stroke="black" d="M440.16,-612.48C417.96,-621.79 390.45,-633.32 366.87,-643.21"/>
<polygon fill="black" stroke="black" points="365.61,-639.94 357.74,-647.03 368.31,-646.4 365.61,-639.94"/>
</g>
<!-- 7496505113898602196 -->
<g id="node14" class="node">
<title>7496505113898602196</title>
<polygon fill="none" stroke="black" points="606.62,-540 373.12,-540 373.12,-504 606.62,-504 606.62,-540"/>
<text xml:space="preserve" text-anchor="middle" x="489.88" y="-514.62" font-family="Helvetica,sans-Serif" font-size="20.00">PropertyMap(Projection)</text>
</g>
<!-- 7496505113898602196&#45;&gt;&#45;4902502814682613831 -->
<g id="edge15" class="edge">
<title>7496505113898602196&#45;&gt;&#45;4902502814682613831</title>
<path fill="none" stroke="black" d="M487.9,-540.3C487.06,-547.59 486.07,-556.27 485.14,-564.46"/>
<polygon fill="black" stroke="black" points="481.66,-564.06 484,-574.39 488.61,-564.85 481.66,-564.06"/>
</g>
<!-- &#45;6757005226296275695&#45;&gt;7496505113898602196 -->
<g id="edge16" class="edge">
<title>&#45;6757005226296275695&#45;&gt;7496505113898602196</title>
<path fill="none" stroke="black" d="M495.9,-468.3C495.06,-475.59 494.07,-484.27 493.14,-492.46"/>
<polygon fill="black" stroke="black" points="489.66,-492.06 492,-502.39 496.61,-492.85 489.66,-492.06"/>
</g>
</g>
</svg>
